<svg width="36" height="36" viewBox="0 0 36 36" fill="none" xmlns="http://www.w3.org/2000/svg">
<path d="M35.5043 0.238647H0.491943V35.1901H35.5043V0.238647Z" fill="#D7D7E2"/>
<path d="M10.4386 28.9075C11.3791 26.019 12.211 23.4193 13.079 20.8557C13.2599 20.278 13.1875 19.9891 12.6812 19.6281C10.4386 18.0394 8.23228 16.4146 5.98975 14.8259C6.1706 14.5009 6.42379 14.6453 6.64081 14.6453C9.20887 14.6453 11.7769 14.6092 14.3088 14.6453C14.9237 14.6453 15.1407 14.4648 15.3216 13.8871C16.1535 11.2874 17.0216 8.6877 17.8535 6.08801C18.1428 6.16023 18.1428 6.41297 18.179 6.59351C18.9747 9.01267 19.8066 11.4318 20.53 13.8871C20.7109 14.5009 21.0002 14.6814 21.6151 14.6814C24.364 14.6453 27.0768 14.6814 29.898 14.8259C26.064 17.57 22.2662 20.3502 18.2875 23.2027C19.6258 23.0582 20.7109 22.661 21.8683 22.4083C23.2789 22.0833 23.2428 22.0472 23.713 23.4554C24.1832 24.9358 24.6534 26.3801 25.1236 27.8604C25.1959 28.1493 25.413 28.402 25.2321 28.7992C23.4598 27.5355 21.7236 26.2356 19.9875 25.008C19.3003 24.5386 18.6492 23.7443 17.9258 23.672C17.2024 23.5998 16.5513 24.5025 15.9003 24.9719C14.2003 26.1995 12.428 27.4633 10.4386 28.9075Z" fill="#FEFEFE"/>
</svg>
