<svg width="36" height="36" viewBox="0 0 36 36" fill="none" xmlns="http://www.w3.org/2000/svg">
<path d="M35.1825 0.238647H0.170166V35.1901H35.1825V0.238647Z" fill="#6BC62B"/>
<path d="M10.1169 28.9075C11.0573 26.019 11.8892 23.4193 12.7573 20.8557C12.9381 20.278 12.8658 19.9891 12.3594 19.6281C10.1169 18.0394 7.9105 16.4146 5.66797 14.8259C5.84882 14.5009 6.10201 14.6453 6.31903 14.6453C8.88708 14.6453 11.4551 14.6092 13.987 14.6453C14.6019 14.6453 14.8189 14.4648 14.9998 13.8871C15.8317 11.2874 16.6998 8.6877 17.5317 6.08801C17.821 6.16023 17.821 6.41297 17.8572 6.59351C18.6529 9.01267 19.4848 11.4318 20.2082 13.8871C20.3891 14.5009 20.6784 14.6814 21.2933 14.6814C24.0422 14.6453 26.755 14.6814 29.5762 14.8259C25.8507 17.57 22.0529 20.3141 18.0742 23.2027C19.4125 23.0582 20.4976 22.661 21.655 22.4083C23.0656 22.0833 23.0295 22.0472 23.4997 23.4554C23.9699 24.9358 24.4401 26.3801 24.9103 27.8604C24.9826 28.1493 25.1997 28.402 25.0188 28.7992C23.2465 27.5355 21.5103 26.2356 19.7742 25.008C19.087 24.5386 18.4359 23.7443 17.7125 23.672C16.9891 23.5998 16.3381 24.5025 15.687 24.9719C13.8785 26.1995 12.1062 27.4633 10.1169 28.9075Z" fill="#FEFEFE"/>
</svg>
