<svg xmlns="http://www.w3.org/2000/svg" xmlns:xlink="http://www.w3.org/1999/xlink" viewBox="0 0 80 30"><defs><style>.cls-1{fill-rule:evenodd;fill:url(#linear-gradient);}</style><linearGradient id="linear-gradient" y1="15" x2="80" y2="15" gradientUnits="userSpaceOnUse"><stop offset="0" stop-color="#ef7b40"/><stop offset="1" stop-color="#ff4b9b"/></linearGradient></defs><title>pinkAsset 6</title><g id="Layer_2" data-name="Layer 2"><g id="Layer_1-2" data-name="Layer 1"><path class="cls-1" d="M15.52,12.63a7.35,7.35,0,0,0-1.4-2.39A6.71,6.71,0,0,0,12,8.62,6.52,6.52,0,0,0,9.14,8,5.61,5.61,0,0,0,4.85,9.89V0H0V22.75H4.85V21.16a5.07,5.07,0,0,0,4.24,2,6.39,6.39,0,0,0,2.75-.6A7,7,0,0,0,14.05,21a7.28,7.28,0,0,0,1.46-2.42,8.32,8.32,0,0,0,.52-3A8.41,8.41,0,0,0,15.52,12.63Zm-4.81,4.24a3.46,3.46,0,0,1-.67,1,3,3,0,0,1-1,.7,2.84,2.84,0,0,1-1.2.25,3,3,0,0,1-1.22-.26,3.44,3.44,0,0,1-1-.7,3.07,3.07,0,0,1-.67-1,3.24,3.24,0,0,1-.24-1.25A3.15,3.15,0,0,1,5,14.36a3.77,3.77,0,0,1,.67-1,3.06,3.06,0,0,1,1-.69,2.91,2.91,0,0,1,1.21-.25,2.77,2.77,0,0,1,1.23.26,3.2,3.2,0,0,1,1,.71A3.25,3.25,0,0,1,11,15.65,3,3,0,0,1,10.71,16.87ZM54.9,8.37H50V22.75H54.9V16.58a4.76,4.76,0,0,1,.85-3.07,3.09,3.09,0,0,1,2.55-1,4.59,4.59,0,0,1,2.11.5V8.11a3.74,3.74,0,0,0-.53,0h-.42a5,5,0,0,0-2.64.68,5.7,5.7,0,0,0-1.92,2Zm-12.54,0H37.48V22.75h4.88V16.58a4.82,4.82,0,0,1,.85-3.07,3.1,3.1,0,0,1,2.56-1,4.55,4.55,0,0,1,2.1.5V8.11a3.49,3.49,0,0,0-.52,0h-.42a5.1,5.1,0,0,0-2.65.68,5.88,5.88,0,0,0-1.92,2ZM68.51,21,62,8.37h5.48l3.58,7.47,3.47-7.47H80L69.36,30h-5.3ZM23.09,15.58a3.19,3.19,0,0,0,.25,1.29,3.05,3.05,0,0,0,.67,1,3,3,0,0,0,1,.7,3.13,3.13,0,0,0,1.27.25,3.09,3.09,0,0,0,1.24-.25,3,3,0,0,0,1-.7,3.43,3.43,0,0,0,.68-1,3.11,3.11,0,0,0,.26-1.25,3.21,3.21,0,0,0-.26-1.27,3.67,3.67,0,0,0-.68-1,3.12,3.12,0,0,0-1-.69,3.09,3.09,0,0,0-1.24-.25,3.13,3.13,0,0,0-2.28.94,3.28,3.28,0,0,0-.67,1A3,3,0,0,0,23.09,15.58Zm6.23-7.21h5V22.75h-5V21.16a5.15,5.15,0,0,1-4.29,2,6.82,6.82,0,0,1-2.81-.57A6.72,6.72,0,0,1,20,21a7.41,7.41,0,0,1-1.49-2.41,8.54,8.54,0,0,1-.53-3,8.06,8.06,0,0,1,.52-2.9,7.42,7.42,0,0,1,1.44-2.4A6.65,6.65,0,0,1,25,8.06a5.67,5.67,0,0,1,4.34,1.86Z"/></g></g></svg>